<svg id="svelte-khights-ui-icons"
    xmlns="http://www.w3.org/2000/svg">
    <symbol id="Images" viewBox="0 0 18 18">
        <path class="fill" d="M16 2.5a.534.534 0 0 0-.563-.5H.563A.534.534 0 0 0 0 2.5v11a.534.534 0 0 0 .563.5H1V3h15Z" />
        <path class="fill" d="M17.5 4h-15a.5.5 0 0 0-.5.5v11a.5.5 0 0 0 .5.5h15a.5.5 0 0 0 .5-.5v-11a.5.5 0 0 0-.5-.5Zm-.5 9.687-2.636-2.637a1 1 0 0 0-1.414 0l-1.536 1.536-3.778-3.779a1 1 0 0 0-1.414 0L3 12.03V5h14Z" />
        <circle class="fill" cx="14.5" cy="7.5" r="1.25" />
    </symbol>
    <symbol id="Quote" viewBox="0 0 18 18">
        <path class="fill" d="M17.5 9h-9a.5.5 0 0 0-.5.5v2a.5.5 0 0 0 .5.5h1a.5.5 0 0 0 .5-.5V11h2v5h-.5a.5.5 0 0 0-.5.5v1a.5.5 0 0 0 .5.5h3a.5.5 0 0 0 .5-.5v-1a.5.5 0 0 0-.5-.5H14v-5h2v.5a.5.5 0 0 0 .5.5h1a.5.5 0 0 0 .5-.5v-2a.5.5 0 0 0-.5-.5Z"/>
        <path class="fill" d="M15.5 1h-14a.5.5 0 0 0-.5.5v11a.5.5 0 0 0 .5.5H7V9a1 1 0 0 1 1-1h1.344L6.636 5.293a1 1 0 0 0-1.414 0L2 8.514V2h13v6h1V1.5a.5.5 0 0 0-.5-.5Z"/>
        <circle class="fill" cx="12.35" cy="4.65" r="1.35"/>
    </symbol>
    <symbol id="Delete" viewBox="0 0 18 18">
        <path d="M15.75 3H12V2a1 1 0 0 0-1-1H6a1 1 0 0 0-1 1v1H1.25a.25.25 0 0 0-.25.25v.5a.25.25 0 0 0 .25.25h1l1.207 12.55a.5.5 0 0 0 .5.45h9.089a.5.5 0 0 0 .5-.45L14.75 4h1a.25.25 0 0 0 .25-.25v-.5a.25.25 0 0 0-.25-.25ZM5.532 14.5A.5.5 0 0 1 5 14.035v-.001l-.535-8a.501.501 0 0 1 1-.067l.535 8a.5.5 0 0 1-.465.533ZM9 14a.5.5 0 0 1-1 0V6a.5.5 0 0 1 1 0Zm2-11H6V2h5Zm1 11.034a.501.501 0 0 1-1-.067l.535-8a.501.501 0 1 1 1 .067Z" />
    </symbol>
</svg>